/* XPM */
static char *result[] = {
/* columns rows colors chars-per-pixel */
"32 32 213 2 ",
"   c #070606",
".  c #1C0502",
"X  c #23110E",
"o  c #391105",
"O  c #3A1105",
"+  c #3E180F",
"@  c #2D1A16",
"#  c #3D1B11",
"$  c #301E1B",
"%  c #361F18",
"&  c #222222",
"*  c #2C2827",
"=  c gray18",
"-  c #3E2521",
";  c #353636",
":  c gray21",
">  c #3F3736",
",  c #373838",
"<  c gray22",
"1  c #3A3B3B",
"2  c gray23",
"3  c gray24",
"4  c #431608",
"5  c #4C1909",
"6  c #4E1D0E",
"7  c #521B0A",
"8  c #441D14",
"9  c #4B1F13",
"0  c #4A2216",
"q  c #43241C",
"w  c #542517",
"e  c #5A2516",
"r  c #532518",
"t  c #53271B",
"y  c #542619",
"u  c #51291D",
"i  c #5A281A",
"p  c #592B1E",
"a  c #412620",
"s  c #472A21",
"d  c #4F2A20",
"f  c #4E2F27",
"g  c #542B20",
"h  c #522C20",
"j  c #512C22",
"k  c #572E22",
"l  c #592E22",
"z  c #5C2F21",
"x  c #5C2F22",
"c  c #4F332C",
"v  c #5D3123",
"b  c #583327",
"n  c #5D3225",
"m  c #5C3226",
"M  c #5E3327",
"N  c #573328",
"B  c #583329",
"V  c #5D3428",
"C  c #5F372B",
"Z  c #5B372D",
"A  c #5E382D",
"S  c #403634",
"D  c #433836",
"F  c #4F3A36",
"G  c #4D3E3B",
"H  c #503933",
"J  c #583830",
"K  c #5C3B33",
"L  c #5E3C31",
"P  c #5F3C33",
"I  c #593B34",
"U  c #5A3F38",
"Y  c #60362A",
"T  c #65382B",
"R  c #653A2C",
"E  c #643A2E",
"W  c #6C392B",
"Q  c #6A3B2D",
"!  c #683C2E",
"~  c #703C2D",
"^  c #613A30",
"/  c #693E31",
"(  c #743F30",
")  c #674136",
"_  c #714133",
"`  c #744233",
"'  c #704436",
"]  c #714436",
"[  c #7B4635",
"{  c #7A4637",
"}  c #714638",
"|  c #724639",
" . c #72473A",
".. c #7A4738",
"X. c #764A3C",
"o. c #7B4839",
"O. c #7A4A3B",
"+. c #7D4939",
"@. c #784A3C",
"#. c #434343",
"$. c gray27",
"%. c #464646",
"&. c #484949",
"*. c #4A4B4B",
"=. c #4B4C4C",
"-. c #4D4E4E",
";. c #4E4F4F",
":. c #504745",
">. c #505050",
",. c #525353",
"<. c #535353",
"1. c #535454",
"2. c #575858",
"3. c #585858",
"4. c #585959",
"5. c #5A5A5A",
"6. c #5B5C5C",
"7. c gray36",
"8. c #5E5F5F",
"9. c #5F5F5F",
"0. c #5F6060",
"q. c #606161",
"w. c #616262",
"e. c #626363",
"r. c #646464",
"t. c #646565",
"y. c #656666",
"u. c gray40",
"i. c #666767",
"p. c #676767",
"a. c DimGray",
"s. c #696A6A",
"d. c #6A6B6B",
"f. c #6B6C6C",
"g. c #6C6C6C",
"h. c #6C6D6D",
"j. c #6D6E6E",
"k. c gray43",
"l. c #6E6F6F",
"z. c #6F7070",
"x. c #707171",
"c. c #737474",
"v. c #747474",
"b. c #747575",
"n. c #757676",
"m. c #777777",
"M. c #777878",
"N. c #787979",
"B. c #797979",
"V. c #797A7A",
"C. c #7A7B7B",
"Z. c #7C7D7D",
"A. c gray49",
"S. c #804C3C",
"D. c #804C3D",
"F. c #824D3E",
"G. c #804F40",
"H. c #835142",
"J. c #845041",
"K. c #855344",
"L. c #8A5544",
"P. c #8C5646",
"I. c #8E5A4A",
"U. c #965F4E",
"Y. c #808080",
"T. c #808181",
"R. c #818181",
"E. c #818282",
"W. c #828383",
"Q. c #838383",
"!. c #838484",
"~. c #848585",
"^. c #858686",
"/. c #868787",
"(. c #878888",
"). c #888989",
"_. c #898989",
"`. c #898A8A",
"'. c gray54",
"]. c #8A8B8B",
"[. c #8B8C8C",
"{. c #8C8D8D",
"}. c #8F9090",
"|. c #909191",
" X c #919292",
".X c #929292",
"XX c #929393",
"oX c #929494",
"OX c #939494",
"+X c gray58",
"@X c #949595",
"#X c #959595",
"$X c #969797",
"%X c #979898",
"&X c #989999",
"*X c #999A9A",
"=X c #9A9B9B",
"-X c #9B9C9C",
";X c gray64",
":X c #A3A4A4",
">X c #A4A5A5",
",X c #A7A7A7",
"<X c #A8A9A9",
"1X c #AFB0B0",
"2X c gray69",
"3X c #B4B4B4",
"4X c #B9B9B9",
"5X c gray73",
"6X c gray74",
"7X c gray77",
"8X c #C5C5C5",
"9X c #C6C6C6",
"0X c None",
/* pixels */
"0X0X0X0X0X0X0X0X0X0X0X0X0X0X0Xm.|.,.0X0X0X0X0X0X0X0X0X0X0X0X0X0X",
"0X0X0X0X0X0X0X0X0X0X0X0X0X:  X4X).$XQ.0X0X0X0X0X0X0X0X0X0X0X0X0X",
"0X0X0X0X0X0X0X0X0X0X0X0X0X{.R.#.>X8X8X2XC.=.8.0X0X0X0X0X0X0X0X0X",
"0X0X0X0X0X0X0X0X0X0X0X0Xs.-Xi.(.p.m.3X6X{.h.{.$XE.t.0X0X0X0X0X0X",
"0X0X0X0X0X0X0X0X0X0X0X%.*X[.e.E.`.`.w.Z.-Xd.z.v..X%X9.0X0X0X0X0X",
"0X0X0X0X0X0X0X0X0X0X0XT.&X3.E.&X X(.].).y.B.l.k.j.z.2.>.0X0X0X0X",
"0X0X0X0X0X0X0X0X0X0X5.%XT.u.XX&X&X&X@X`.].).d.r.n.M.@X5X*X0X0X0X",
"0X0X0X0X0X0X0X0X0X0Xc.~.$.^.&X&X&X&X&X&XOX/.].].y.b.,X7X9X<XA.7.",
"0X0X0X0X0X0X0X0X0X0X6.s.-.f.!.XX&X&X&X&X&X&X X/.].`.p.a.;X:X1X_.",
"0X0X0X0X0X0X0X0X0X0X0X3 *.-.1.z.^.XX&X&X&X&X&X&XXX).).].c.&.+X'.",
"0X0X0X0X0X0X0X0X0X0X0X0X0X1 =.-.2.x./.OX&X&X&X&X&X&X|.E.u.(.#X= ",
"0X0X0X0X0X0X0X0X0X0X0X0X0X0X0X, =.-.4.b./.oX&X&X&X%XW.e.^.-Xq.0X",
"0X0X0X0X0X0X0X0X0X0X0X0X0X0X  5 8 > *.-.0.V./.OX&X).y.N.=Xc.0X0X",
"0X0X0X0X0X0X0X0X0X0X0X0X0X:.# ( e 7 + < *.-.y.C.!.w.g.&XY.0X0X0X",
"0X0X0X0X0X0X0X0X0X0X0X0X0XR 9 K.] u @ 0X0X2 &.-.-.4.}.`.0X0X0X0X",
"0X0X0X0X0X0X0X0X0X0X0X0Xz ' ..Q ~ a 0X0X0X0X0X; ;.c.g.<.0X0X0X0X",
"0X0X0X0X0X0X0X0X0X0X0X. [ C X./ s 0X0X0X0X0X0X0X0X0X0X0X0X0X0X0X",
"0X0X0X0X0X0X0X0X0X0XH O P.D.+.j 0X0X0X0X0X0X0X0X0X0X0X0X0X0X0X0X",
"0X0X0X0X0X0X0X0X0X- n w Y M q 0X0X0X0X0X0X0X0X0X0X0X0X0X0X0X0X0X",
"0X0X0X0X0X0X0X0X* S.V H.O.T 0X0X0X0X0X0X0X0X0X0X0X0X0X0X0X0X0X0X",
"0X0X0X0X0X0X0XS o L.i 6 4 & 0X0X0X0X0X0X0X0X0X0X0X0X0X0X0X0X0X0X",
"0X0X0X0X0X0X0X .y H.I.G.G 0X0X0X0X0X0X0X0X0X0X0X0X0X0X0X0X0X0X0X",
"0X0X0X0X0X0X0 } W t r X 0X0X0X0X0X0X0X0X0X0X0X0X0X0X0X0X0X0X0X0X",
"0X0X0X0X0Xf F.h @.E % 0X0X0X0X0X0X0X0X0X0X0X0X0X0X0X0X0X0X0X0X0X",
"0X0X0X0XF m ` { J.K 0X0X0X0X0X0X0X0X0X0X0X0X0X0X0X0X0X0X0X0X0X0X",
"0X0X0X0Xl U.| k d 0X0X0X0X0X0X0X0X0X0X0X0X0X0X0X0X0X0X0X0X0X0X0X",
"0X0X0X0X$ p o._ 0X0X0X0X0X0X0X0X0X0X0X0X0X0X0X0X0X0X0X0X0X0X0X0X",
"0X0Xc I B U 0X0X0X0X0X0X0X0X0X0X0X0X0X0X0X0X0X0X0X0X0X0X0X0X0X0X",
"0X! P 0Xb 0X0X0X0X0X0X0X0X0X0X0X0X0X0X0X0X0X0X0X0X0X0X0X0X0X0X0X",
") v 0X0XA 0X0X0X0X0X0X0X0X0X0X0X0X0X0X0X0X0X0X0X0X0X0X0X0X0X0X0X",
"L x D g J 0X0X0X0X0X0X0X0X0X0X0X0X0X0X0X0X0X0X0X0X0X0X0X0X0X0X0X",
"0XN ^ Z 0X0X0X0X0X0X0X0X0X0X0X0X0X0X0X0X0X0X0X0X0X0X0X0X0X0X0X0X"
};
