/* XPM */
static char *result[] = {
/* columns rows colors chars-per-pixel */
"32 32 6 1 ",
"  c #FF3C01",
". c #EEEEEE",
"X c white",
"o c #FF2900",
"O c #FC835E",
"+ c #FAB39E",
/* pixels */
"X..X.XX.X..X.XX.X..X.XX.X..X.XX.",
".XX.X..X.XX.X..X.XX.X..X.XX.X..X",
".XX.X..X.XX.X..X.XX.X..X.XX.X..X",
"X..X.XX.X..X.XX.X..+++X.X..X.XX.",
".XX.X..X.XX.X..X.XO   XX.XX.X..X",
"X..X.XX.X..X.XX.X+    X.X..X.XX.",
"X..X.XX.X..X.X.+.O    X.X..X.XX.",
".XX.X..X.XX.+O        XX.XX.X..X",
"X..X.XX.X.+   OO      +.X..X.XX.",
".XX.X..X.O  +..+       +.XX.X..X",
".XX.X...O O.X..O  O   O +XX.X..X",
"X..X.XXO O.X.X+  O+   .O +.X.XX.",
".XX.X.+ O.X.X.O  +.   X. O..X..X",
"X..X.XO ...X.+   .+   X.+ +X.XX.",
"X..X.. OX..X.O  +..   X.. OX.XX.",
".XX.X+ +.XX.+   .XX+  XX.O .X..X",
"X..X.+ +X..XO  +X..X+ X.XO ..XX.",
".XX.X+ +.XX+   .XX.+X+XX.+ +X..X",
".XX.X+ +.X.O        +..X.O .X..X",
"X..X.+ +X.+          +X.XO ..XX.",
".XX.X. O.XO          +.X.  .X..X",
"X..X..O .+   +.+.++O..X.+ +X.XX.",
"X..X.X++XO  OXX.X....OX.  .X.XX.",
".XX.X...+   +..X.XX.O .O +X.X..X",
"X..X.XX.O  O.XX.X..X..O O..X.XX.",
".XX.X..+   +X..X.XX.+O O.XX.X..X",
".XX.X..O  O.+O+.+++O  O..XX.X..X",
"X..X.X+   +XO       O.X.X..X.XX.",
".XX.X.++++..X.+++++.X..X.XX.X..X",
"X..X.XX.X..X.XX.X..X.XX.X..X.XX.",
"X..X.XX.X..X.XX.X..X.XX.X..X.XX.",
".XX.X..X.XX.X..X.XX.X..X.XX.X..X"
};
