/* XPM */
static char *result[] = {
/* columns rows colors chars-per-pixel */
"32 32 131 2 ",
"   c #010000",
".  c #0E0101",
"X  c #0B0B0B",
"o  c #140000",
"O  c #1A0000",
"+  c #000517",
"@  c #1A1515",
"#  c #230000",
"$  c #2C0000",
"%  c #330000",
"&  c #3D0000",
"*  c #010E2D",
"=  c #170923",
"-  c #071935",
";  c #3C2A2A",
":  c #3B3737",
">  c #430202",
",  c #4C0101",
"<  c #450808",
"1  c #530101",
"2  c #5D0101",
"3  c #5E0F0F",
"4  c #610101",
"5  c #6C0202",
"6  c #730101",
"7  c #7C0202",
"8  c #740D0D",
"9  c #7B0A0A",
"0  c #6C071A",
"q  c #6D081F",
"w  c #740617",
"e  c #78081F",
"r  c #641111",
"t  c #6B1111",
"y  c #731111",
"u  c #7A1414",
"i  c #5E0B27",
"p  c #570F2E",
"a  c #591338",
"s  c #701023",
"d  c #67163F",
"f  c #761034",
"g  c #021946",
"h  c #021B49",
"j  c #082350",
"k  c #032258",
"l  c #0E2A5B",
"z  c #132F5A",
"x  c #202155",
"c  c #022561",
"v  c #0C2764",
"b  c #032865",
"n  c #0E2E64",
"m  c #032A6A",
"M  c #172A6E",
"N  c #11346E",
"B  c #042E73",
"V  c #03317D",
"C  c #133672",
"Z  c #173E7D",
"A  c #272663",
"S  c #29307C",
"D  c #421A46",
"F  c #431B4A",
"G  c #521847",
"H  c #621743",
"J  c #7C1540",
"K  c #552351",
"L  c #452A6E",
"P  c gray30",
"I  c #535353",
"U  c gray36",
"Y  c #624343",
"T  c gray38",
"R  c #6B6B6B",
"E  c #830202",
"W  c #8B0101",
"Q  c #800E0E",
"!  c #8B0B0B",
"~  c #930101",
"^  c #9B0101",
"/  c #920909",
"(  c #980A0A",
")  c #851313",
"_  c #8C1212",
"`  c #841919",
"'  c #951313",
"]  c #991414",
"[  c #971B1B",
"{  c #9C1D1D",
"}  c #A40202",
"|  c #AB0202",
" . c #A70909",
".. c #AD0D0D",
"X. c #B40202",
"o. c #BC0202",
"O. c #B30F0F",
"+. c #A51717",
"@. c #AC1313",
"#. c #AE1D1D",
"$. c #B51414",
"%. c #BF1616",
"&. c #B01A1A",
"*. c #BA1C1C",
"=. c #901020",
"-. c #961B37",
";. c #A72020",
":. c #C10202",
">. c #C40A0A",
",. c #C92626",
"<. c #D22929",
"1. c #023383",
"2. c #02368A",
"3. c #01388F",
"4. c #053A91",
"5. c #0A3E93",
"6. c #1A4690",
"7. c #818181",
"8. c gray58",
"9. c #9A9A9A",
"0. c #ACACAC",
"q. c #B4B4B4",
"w. c gray72",
"e. c #C5C5C5",
"r. c #CBCBCB",
"t. c #D2D2D2",
"y. c #DADADA",
"u. c #ECECEC",
"i. c #F3F3F3",
"p. c #FEFEFE",
"a. c None",
/* pixels */
"a.a.a.a.a.a.a.a.a.a.a.r y _ E 5 O a.a.a.a.a.a.a.a.a.a.a.a.a.a.a.",
"a.a.a.a.a.a.a.a.a.u *.$.^ } o.:.>...] < a.a.a.a.a.a.a.a.a.a.a.a.",
"a.a.a.a.a.a.a.. [ %.X.| o.:.| | X.:.:.%.u a.a.a.a.a.a.a.a.a.a.a.",
"a.a.a.a.a.a.r ,.>.:.:.| :.:.o.:.X.} | |  .) a.a.a.a.a.a.a.a.a.a.",
"a.a.a.a.a.< <.>.:.:.:.| :.:.:.:.:.:.X.} | >.5 a.a.a.a.a.a.a.a.a.",
"a.a.a.a.a.;.>.:.:.:.| ^ o.:.:.:.:.| X.:.| :.| a.a.a.a.a.a.a.a.a.",
"a.a.a.a.< *.:.:.X.| } :.| } X.:.| X.:.^ } :.:.2 a.a.a.a.a.a.a.a.",
"a.a.a.a.` @.} | X.:.| :.:.:.X.~ | o.W X 2 o.:.E a.a.a.a.a.a.a.a.",
"a.a.a.a.+.} | :.:.:.| :.:.:.X.X.| 4 T e.$ X.:.W a.a.a.a.a.a.a.a.",
"a.a.a.a.;.} } >.:.:.| :.:.:.} o., R i.y.. } :.E a.a.a.a.a.a.a.a.",
"a.a.a.a._ ~ X.} | | ^ | | W o.7 U i.p.t.  } o.E a.a.a.a.a.a.a.a.",
"a.a.a.a./ o | W :.:.X.:.:.| ~   t.p.p.t.  } W 6 a.a.a.a.a.a.a.a.",
"a.a.a.a.9 I @ X.} o.~ | ^ :.7 R p.p.p.w.  } E E a.a.a.a.a.a.a.a.",
"a.a.a.a.> Y r., } ^ | o.^ o.$ e.p.p.u.9.& | ~ 5 a.a.a.a.a.a.a.a.",
"a.a.a.a.a.$ y.r.$ ^ E ~ | 7 P p.p.p.r.R W W ~ 1 a.a.a.a.a.a.a.a.",
"a.a.a.a.a.% 7.i.t.: 1 7 | . y.p.u.r.0.& X.9 E a.a.a.a.a.a.a.a.a.",
"a.a.a.a.a.o 6 8.e.T ~ | } 5 R 0.q.8.; ^ ] #.' ) t a.a.a.a.a.a.a.",
"a.a.a.a.a.a.W E > 7 } ^ | | 7 4 2 5 Q $.} o.} W / a.a.a.a.a.a.a.",
"a.a.a.a.a.a.% W | ^ X.o.| | } W o.@.$.' / } 5 # a.a.a.a.a.a.a.a.",
"a.a.2 Q 8 y Q ! 0 0 ~ ^ W | | ^ 7 ] ~ ^ | E | ) a.a.a.a.a.a.a.a.",
"a.a.1 E / W ^ W f 1.A F s E 5 7 W ^ o.~ | 4 ^ O.o a.a.a.a.a.a.a.",
"a.a.y ) 6 E W W H V m v K @.6 7 ^ W ~ i w # 1 6   a.a.a.a.a.a.a.",
"a.1 W , ~ W 1 1 =   a.a.a., 2 6 | ~ e v g a.a.a.a.a.a.a.a.a.a.a.",
"a.a.a.2 7 > a.a.a.a.a.a.a.a.E } ^ W a c j a.a.a.a.a.a.a.a.a.a.a.",
"a.a.a.% O a.a.a.a.a.a.z n N G } ^ E D 2.4.6.- a.a.a.a.a.a.a.a.a.",
"a.a.a.a.a.a.a.a.a.a.Z 5.3.3.3.2.M x m 3.3.3.C a.a.a.a.a.a.a.a.a.",
"a.a.a.a.a.a.a.a.a.z 5.3.3.2.V B m k B 3.3.S -.a.a.a.a.a.a.a.a.a.",
"a.a.a.a.a.a.a.a.< =.L 2.V m h *     p H f } ( 3 a.a.a.a.a.a.a.a.",
"a.a.a.a.a.a.a.a.+.^ } q D + a.a.a.a.E E X.X.| y a.a.a.a.a.a.a.a.",
"a.a.a.a.a.a.a.[ } | ^ 9 O a.a.a.a.a.1 5 ^ ~ | 9 a.a.a.a.a.a.a.a.",
"a.a.a.a.a.a.t ..^ | 5 1 a.a.a.a.a.a.$ 5 E ^ ~   a.a.a.a.a.a.a.a.",
"a.a.a.a.a.a.a.$ 4 > # a.a.a.a.a.a.a.a.a., , 2 a.a.a.a.a.a.a.a.a."
};
