/* XPM */
static char *result[] = {
/* columns rows colors chars-per-pixel */
"32 32 131 2 ",
"   c #010000",
".  c #0E0101",
"X  c #0B0B0B",
"o  c #140000",
"O  c #1A0000",
"+  c #000517",
"@  c #1A1515",
"#  c #230000",
"$  c #2C0000",
"%  c #330000",
"&  c #3D0000",
"*  c #010E2D",
"=  c #170923",
"-  c #071935",
";  c #3C2A2A",
":  c #3B3737",
">  c #430202",
",  c #4C0101",
"<  c #450808",
"1  c #530101",
"2  c #5D0101",
"3  c #5E0F0F",
"4  c #610101",
"5  c #6C0202",
"6  c #730101",
"7  c #7C0202",
"8  c #740D0D",
"9  c #7B0A0A",
"0  c #6C071A",
"q  c #6D081F",
"w  c #740617",
"e  c #78081F",
"r  c #641111",
"t  c #6B1111",
"y  c #731111",
"u  c #7A1414",
"i  c #5E0B27",
"p  c #570F2E",
"a  c #591338",
"s  c #701023",
"d  c #67163F",
"f  c #761034",
"g  c #021946",
"h  c #021B49",
"j  c #082350",
"k  c #032258",
"l  c #0E2A5B",
"z  c #132F5A",
"x  c #202155",
"c  c #022561",
"v  c #0C2764",
"b  c #032865",
"n  c #0E2E64",
"m  c #032A6A",
"M  c #172A6E",
"N  c #11346E",
"B  c #042E73",
"V  c #03317D",
"C  c #133672",
"Z  c #173E7D",
"A  c #272663",
"S  c #29307C",
"D  c #421A46",
"F  c #431B4A",
"G  c #521847",
"H  c #621743",
"J  c #7C1540",
"K  c #552351",
"L  c #452A6E",
"P  c gray30",
"I  c #535353",
"U  c gray36",
"Y  c #624343",
"T  c gray38",
"R  c #6B6B6B",
"E  c #830202",
"W  c #8B0101",
"Q  c #800E0E",
"!  c #8B0B0B",
"~  c #930101",
"^  c #9B0101",
"/  c #920909",
"(  c #980A0A",
")  c #851313",
"_  c #8C1212",
"`  c #841919",
"'  c #951313",
"]  c #991414",
"[  c #971B1B",
"{  c #9C1D1D",
"}  c #A40202",
"|  c #AB0202",
" . c #A70909",
".. c #AD0D0D",
"X. c #B40202",
"o. c #BC0202",
"O. c #B30F0F",
"+. c #A51717",
"@. c #AC1313",
"#. c #AE1D1D",
"$. c #B51414",
"%. c #BF1616",
"&. c #B01A1A",
"*. c #BA1C1C",
"=. c #901020",
"-. c #961B37",
";. c #A72020",
":. c #C10202",
">. c #C40A0A",
",. c #C92626",
"<. c #D22929",
"1. c #023383",
"2. c #02368A",
"3. c #01388F",
"4. c #053A91",
"5. c #0A3E93",
"6. c #1A4690",
"7. c #818181",
"8. c gray58",
"9. c #9A9A9A",
"0. c #ACACAC",
"q. c #B4B4B4",
"w. c gray72",
"e. c #C5C5C5",
"r. c #CBCBCB",
"t. c #D2D2D2",
"y. c #DADADA",
"u. c #ECECEC",
"i. c #F3F3F3",
"p. c #FEFEFE",
"a. c None",
/* pixels */
"a.a.a.a.a.a.a.a.a.a.a.a.a.a.a.# 5 E ! y r a.a.a.a.a.a.a.a.a.a.a.",
"a.a.a.a.a.a.a.a.a.a.a.a.< ] ..>.o.o.} ^ $.*.` a.a.a.a.a.a.a.a.a.",
"a.a.a.a.a.a.a.a.a.a.a.u %.:.:.X.} | :.o.| X.%.[ . a.a.a.a.a.a.a.",
"a.a.a.a.a.a.a.a.a.a.)  .| | } X.:.:.:.:.| :.:.>.,.r a.a.a.a.a.a.",
"a.a.a.a.a.a.a.a.a.5 >.| | X.:.:.:.:.:.:.| :.:.:.>.<.< a.a.a.a.a.",
"a.a.a.a.a.a.a.a.a.| o.| :.X.| :.:.:.o.o.^ } :.:.:.>.;.a.a.a.a.a.",
"a.a.a.a.a.a.a.a.2 :.o.} ^ :.o.} :.X.} X.:.} | X.:.:.*.< a.a.a.a.",
"a.a.a.a.a.a.a.a.E :.:.2 X W o.} ~ o.o.:.:.| :.X.| } @.` a.a.a.a.",
"a.a.a.a.a.a.a.a.E :.X.$ e.T 4 } X.X.:.:.:.| :.:.:.| } { a.a.a.a.",
"a.a.a.a.a.a.a.a.W :.|   y.i.R 1 o.} :.:.:.| :.:.:.} } #.a.a.a.a.",
"a.a.a.a.a.a.a.a.E o.}   t.p.i.U 7 o.~ } | } | | | X.W ' a.a.a.a.",
"a.a.a.a.a.a.a.a.6 ~ }   t.p.p.t.  ~ | o.:.| :.:.W | o / a.a.a.a.",
"a.a.a.a.a.a.a.a.E E }   w.p.p.p.R 7 :.^ } ~ o.| X.@ I 9 a.a.a.a.",
"a.a.a.a.a.a.a.a.5 ~ } & 9.u.p.p.r.$ o.^ o.X.^ ^ > r.Y > a.a.a.a.",
"a.a.a.a.a.a.a.a.1 ~ W W R r.i.p.i.P 7 | W E } % r.y.$ a.a.a.a.a.",
"a.a.a.a.a.a.a.a.a.E 7 X.& 0.r.i.p.y.. | 7 1 : t.i.7.% a.a.a.a.a.",
"a.a.a.a.a.a.a.t ) ( #.' ^ ; 8.q.0.R 5 } | ~ T e.8.5 o a.a.a.a.a.",
"a.a.a.a.a.a.a./ W } o.} $.! 5 2 4 7 | | ^ } 7 , E W a.a.a.a.a.a.",
"a.a.a.a.a.a.a.a.# 5 } / ' @.@.X.W } | | o.X.^ | W % a.a.a.a.a.a.",
"a.a.a.a.a.a.a.a.) ..E }  .~ ] 7 } | | W ~ ^ 0 0 ! Q 8 8 ) 2 a.a.",
"a.a.a.a.a.a.a.o O.^ 4 X.~ o.^ W 7 5 7 s F A 1.J W ^ W / E 1 a.a.",
"a.a.a.a.a.a.a.  6 , # w i ~ W ^ 7 6 @.K b m B H W W E 6 ) y a.a.",
"a.a.a.a.a.a.a.a.a.a.a.g v e ~ | 6 4 , a.a.a.  = 1 1 W ~ , W 1 a.",
"a.a.a.a.a.a.a.a.a.a.a.j c a W ^ } E a.a.a.a.a.a.a.a.> 7 2 a.a.a.",
"a.a.a.a.a.a.a.a.a.- 6.4.2.D E ^ ^ G N n z a.a.a.a.a.a.o % a.a.a.",
"a.a.a.a.a.a.a.a.a.C 3.3.3.m x M 1.3.4.2.5.Z a.a.a.a.a.a.a.a.a.a.",
"a.a.a.a.a.a.a.a.a.-.S 4.3.B k B B V 2.4.3.5.l a.a.a.a.a.a.a.a.a.",
"a.a.a.a.a.a.a.a.3 ( } f H p     * h b 1.2.L =.< a.a.a.a.a.a.a.a.",
"a.a.a.a.a.a.a.a.y | X.X.E E a.a.a.a.+ D q } ^ +.a.a.a.a.a.a.a.a.",
"a.a.a.a.a.a.a.a.9 | ~ ^ 6 1 a.a.a.a.a.O 7 } }  .[ a.a.a.a.a.a.a.",
"a.a.a.a.a.a.a.a.  ~ ^ E 5 $ a.a.a.a.a.a.1 6 | ^ ..8 a.a.a.a.a.a.",
"a.a.a.a.a.a.a.a.a.1 1 , a.a.a.a.a.a.a.a.a.# & 4 $ a.a.a.a.a.a.a."
};
