/* XPM */
static char *result[] = {
/* columns rows colors chars-per-pixel */
"32 32 131 2 ",
"   c #010000",
".  c #0E0101",
"X  c #0B0B0B",
"o  c #140000",
"O  c #1A0000",
"+  c #000517",
"@  c #1A1515",
"#  c #230000",
"$  c #2C0000",
"%  c #330000",
"&  c #3D0000",
"*  c #010E2D",
"=  c #170923",
"-  c #071935",
";  c #3C2A2A",
":  c #3B3737",
">  c #430202",
",  c #4C0101",
"<  c #450808",
"1  c #530101",
"2  c #5D0101",
"3  c #5E0F0F",
"4  c #610101",
"5  c #6C0202",
"6  c #730101",
"7  c #7C0202",
"8  c #740D0D",
"9  c #7B0A0A",
"0  c #6C071A",
"q  c #6D081F",
"w  c #740617",
"e  c #78081F",
"r  c #641111",
"t  c #6B1111",
"y  c #731111",
"u  c #7A1414",
"i  c #5E0B27",
"p  c #570F2E",
"a  c #591338",
"s  c #701023",
"d  c #67163F",
"f  c #761034",
"g  c #021946",
"h  c #021B49",
"j  c #082350",
"k  c #032258",
"l  c #0E2A5B",
"z  c #132F5A",
"x  c #202155",
"c  c #022561",
"v  c #0C2764",
"b  c #032865",
"n  c #0E2E64",
"m  c #032A6A",
"M  c #172A6E",
"N  c #11346E",
"B  c #042E73",
"V  c #03317D",
"C  c #133672",
"Z  c #173E7D",
"A  c #272663",
"S  c #29307C",
"D  c #421A46",
"F  c #431B4A",
"G  c #521847",
"H  c #621743",
"J  c #7C1540",
"K  c #552351",
"L  c #452A6E",
"P  c gray30",
"I  c #535353",
"U  c gray36",
"Y  c #624343",
"T  c gray38",
"R  c #6B6B6B",
"E  c #830202",
"W  c #8B0101",
"Q  c #800E0E",
"!  c #8B0B0B",
"~  c #930101",
"^  c #9B0101",
"/  c #920909",
"(  c #980A0A",
")  c #851313",
"_  c #8C1212",
"`  c #841919",
"'  c #951313",
"]  c #991414",
"[  c #971B1B",
"{  c #9C1D1D",
"}  c #A40202",
"|  c #AB0202",
" . c #A70909",
".. c #AD0D0D",
"X. c #B40202",
"o. c #BC0202",
"O. c #B30F0F",
"+. c #A51717",
"@. c #AC1313",
"#. c #AE1D1D",
"$. c #B51414",
"%. c #BF1616",
"&. c #B01A1A",
"*. c #BA1C1C",
"=. c #901020",
"-. c #961B37",
";. c #A72020",
":. c #C10202",
">. c #C40A0A",
",. c #C92626",
"<. c #D22929",
"1. c #023383",
"2. c #02368A",
"3. c #01388F",
"4. c #053A91",
"5. c #0A3E93",
"6. c #1A4690",
"7. c #818181",
"8. c gray58",
"9. c #9A9A9A",
"0. c #ACACAC",
"q. c #B4B4B4",
"w. c gray72",
"e. c #C5C5C5",
"r. c #CBCBCB",
"t. c #D2D2D2",
"y. c #DADADA",
"u. c #ECECEC",
"i. c #F3F3F3",
"p. c #FEFEFE",
"a. c None",
/* pixels */
"a.a.a.a.a.a.a.a.a.a.a.a.a.a.a.a.a.a.a.a.a.a.a.a.a.a.a.a.a.a.a.a.",
"a.a.a.a.a.a.a.a.a.1 a.a.a.a.a.a.a.a.a.a.a.a.a.a.a.a.a.a.a.a.a.a.",
"a.a.a.a.a.a.a.a.a.W y 1 2 a.a.a.a.a.a.a.a.a.a.a.a.a.a.a.a.a.a.a.",
"a.a.a.a.a.a.a.% 2 , _ E u a.a.a.a.a.a.a.a.a.a.a.a.a.a.a.a.a.a.a.",
"a.a.a.a.a.a.a.O 7 ~ 7 ! 9 a.a.a.a.a.> 9 / ' #.{ ` < a.a.a.a.a.a.",
"a.a.a.a.a.a.a.a.> W 7 W t a.a.O % % Y I o W | } @.*.;.< a.a.a.a.",
"a.t a.a.a.a.a.a.a.1 W ^ ) % W 5 7.y.r.@ | X.| | } :.>.<.r a.a.a.",
"$ ..[ a.a.a.a.a.a., W W ! W E 8.i.r., | W } :.:.| :.:.>.,.. a.a.",
"4 ^ } +.< a.a.a.a.= H f 0 | , e.t.% ^ | :.| :.:.X.X.:.:.>.[ a.a.",
"> | } ^ =.l a.a.a.  V 1.0 ^ E T : ^ ^ o.:.| :.o.:.| :.:.:.%.` a.",
"# 5 } } L 5.Z a.a.a.m A ~ X.^ ~ 1 E X.~ X.} | | | } } :.>.X.*.a.",
"a.1 7 q 2.3.5.z a.a.v F ~ o.^ | 7 W X.| o.| :.:.:.:.^ | } | $.r ",
"a.a.O D 1.3.3.n a.a.K s W | | | | | ^ ^ o.| o.:.:.| o.:.:.o.^ 8 ",
"a.a.a.+ m 2.3.N a.1 @.7 | X.} 5 o 7 o.:.| ~ :.:.:.} :.:.:.:.} ! ",
"a.a.a.a.h V 3.G 9 4 6 5 | } 7 R y.P $ 7 ~ o.} X.X.X.:.:.:.} o.E ",
"a.a.a.a.* B 1.} | 6 7 7 ^ W 4 0.p.i.r.R   7 :.X.~ :.:.:.:.| o.5 ",
"a.a.a.a.  m M ^ ^ X.^ ~ 7 X.2 q.u.p.p.p.t.U 1 } | | :.:.X.X.>.# ",
"a.a.a.a.  k x E W ~ E ^ ' @.5 8.r.p.p.p.p.i.R 2 o.X.| :.| :...a.",
"a.$ 1 E p B m D a e ~ o.~ $.! ; 0.r.u.p.p.p.i.T W :.X.X.} >.' a.",
"a.5 5 E H 4.3.2.c v i ~ ^ ' $.^ & R 9.w.t.t.y.e.X ^ o.| | %.< a.",
", E ^ X.f 3.3.4.j h w | | / } ] | W &         % 2 } |  . .u a.a.",
"1 ^ ~ X.} S 3.6.a.a.# 4 E } X.&.E W } } } } | X.o.:.:.>.! a.a.a.",
"1 ~ | | ( -.C - a.a., ^  .6 } ' E ~ W W ~ o.:.:.:.:.| 5 a.a.a.a.",
"a.  9 y 3 a.a.a.a.a.7 O.) # W ) a.1 5 E 6 E E E E 2 a.a.a.a.a.a.",
"a.a.a.a.a.a.a.a.a.a.  o a.a./ t a.a.a.a.a.a.a.a.a.a.a.a.a.a.a.a.",
"a.a.a.a.a.a.a.a.a.a.a.a.a.a.a.a.a.a.a.a.a.a.a.a.a.a.a.a.a.a.a.a.",
"a.a.a.a.a.a.a.a.a.a.a.a.a.a.a.a.a.a.a.a.a.a.a.a.a.a.a.a.a.a.a.a.",
"a.a.a.a.a.a.a.a.a.a.a.a.a.a.a.a.a.a.a.a.a.a.a.a.a.a.a.a.a.a.a.a.",
"a.a.a.a.a.a.a.a.a.a.a.a.a.a.a.a.a.a.a.a.a.a.a.a.a.a.a.a.a.a.a.a.",
"a.a.a.a.a.a.a.a.a.a.a.a.a.a.a.a.a.a.a.a.a.a.a.a.a.a.a.a.a.a.a.a.",
"a.a.a.a.a.a.a.a.a.a.a.a.a.a.a.a.a.a.a.a.a.a.a.a.a.a.a.a.a.a.a.a.",
"a.a.a.a.a.a.a.a.a.a.a.a.a.a.a.a.a.a.a.a.a.a.a.a.a.a.a.a.a.a.a.a."
};
